<svg width="80" height="80" viewBox="0 0 80 80" fill="none" xmlns="http://www.w3.org/2000/svg">
<rect width="80" height="80" rx="8" fill="#E7E7E7"/>
<mask id="mask0_814_32332" style="mask-type:alpha" maskUnits="userSpaceOnUse" x="0" y="0" width="80" height="80">
<path d="M0 4C0 1.79086 1.79086 0 4 0H76C78.2091 0 80 1.79086 80 4V76C80 78.2091 78.2091 80 76 80H4C1.79086 80 0 78.2091 0 76V4Z" fill="#E7E7E7"/>
</mask>
<g mask="url(#mask0_814_32332)">
<path opacity="0.33" fill-rule="evenodd" clip-rule="evenodd" d="M24.6989 32.4756C24.6472 28.8495 24.5748 21.3568 24.699 20.363C24.8233 19.3689 25.3721 17.4634 25.7864 16.6349H25.0097C25.2168 16.1689 26.1281 14.8019 28.1165 13.0621C30.1048 11.3223 31.7411 10.8873 32.3107 10.8873C32.1035 10.8873 31.534 10.8252 30.9126 10.5766C32.2796 10.3281 35.1068 9.95527 36.3495 9.79993C36.1941 9.74815 35.4796 9.58245 33.8641 9.33391C38.9903 8.71255 43.1844 8.86789 47.2233 10.5766C51.2621 12.2854 52.9708 15.3922 52.9708 16.9456C55.3009 18.0329 55.767 20.8291 55.767 24.4019C55.767 26.059 55.6625 28.0051 55.5748 29.6406C55.5128 30.7951 55.4592 31.7949 55.4564 32.4292C56.0293 32.373 56.684 32.5234 57.0097 33.2562C57.6245 34.6397 56.5662 41.8034 54.7377 41.2003C54.4258 43.1164 53.9551 44.6601 53.2816 45.8388C51.7903 48.4485 50.6926 49.7223 50.3301 50.0329C50.1748 50.9132 49.9573 53.2329 50.3301 55.4698C50.7961 58.2659 51.7282 59.5087 54.9903 60.13C58.2524 60.7514 69.1262 64.4795 72.699 66.0329C80 69.2073 80 80.9456 80 80.9456H0C0 80.9456 0 69.2073 7.30097 66.0329C10.8738 64.4795 21.7476 60.7514 25.0097 60.13C28.2718 59.5087 29.2039 58.2659 29.6699 55.4698C30.0427 53.2329 29.8252 50.9132 29.6699 50.0329C29.3074 49.7223 28.2097 48.4485 26.7184 45.8388C26.0385 44.649 25.5653 43.0872 25.2535 41.146C25.2313 41.158 25.2086 41.1688 25.1852 41.1786C23.3212 41.9553 22.2338 34.6543 22.8551 33.2562C23.2377 32.3955 24.0742 32.3382 24.6989 32.4756ZM24.7503 32.4795H24.7167C24.728 32.4821 24.7391 32.4847 24.7502 32.4874C24.7502 32.4848 24.7502 32.4822 24.7503 32.4795Z" fill="#AAAAAA"/>
</g>
</svg>
