<svg width="312" height="200" viewBox="0 0 312 200" fill="none" xmlns="http://www.w3.org/2000/svg">
<rect x="0.5" y="0.5" width="311" height="199" rx="15.5" fill="#E7E7E7" stroke="#E7E7E7"/>
<g opacity="0.2">
<rect x="91" y="14" width="130" height="10" rx="5" fill="#777777"/>
<rect x="113" y="28" width="86" height="10" rx="5" fill="#777777"/>
</g>
<g opacity="0.2">
<rect x="14" y="56" width="26" height="10" rx="5" fill="#777777"/>
<rect x="14" y="72" width="26" height="6" rx="3" fill="#777777"/>
<rect x="14" y="84" width="60" height="6" rx="3" fill="#777777"/>
<rect x="14" y="96" width="52" height="6" rx="3" fill="#777777"/>
<rect x="14" y="108" width="28" height="6" rx="3" fill="#777777"/>
<rect x="14" y="120" width="28" height="6" rx="3" fill="#777777"/>
<rect x="14" y="132" width="36" height="6" rx="3" fill="#777777"/>
<rect x="14" y="144" width="44" height="6" rx="3" fill="#777777"/>
<rect x="14" y="156" width="44" height="6" rx="3" fill="#777777"/>
<rect x="14" y="168" width="60" height="6" rx="3" fill="#777777"/>
<rect x="14" y="180" width="52" height="6" rx="3" fill="#777777"/>
</g>
<g opacity="0.2">
<rect x="88" y="56" width="100" height="10" rx="5" fill="#777777"/>
<rect x="88" y="72" width="59" height="6" rx="3" fill="#777777"/>
<rect x="88" y="84" width="72" height="6" rx="3" fill="#777777"/>
<rect x="88" y="96" width="40" height="6" rx="3" fill="#777777"/>
<rect x="88" y="108" width="80" height="6" rx="3" fill="#777777"/>
<rect x="88" y="120" width="28" height="6" rx="3" fill="#777777"/>
<rect x="88" y="132" width="68" height="6" rx="3" fill="#777777"/>
<rect x="88" y="144" width="44" height="6" rx="3" fill="#777777"/>
<rect x="88" y="156" width="68" height="6" rx="3" fill="#777777"/>
<rect x="88" y="168" width="20" height="6" rx="3" fill="#777777"/>
<rect x="88" y="180" width="36" height="6" rx="3" fill="#777777"/>
</g>
<g opacity="0.2">
<rect x="224" y="56" width="74" height="100" rx="2" fill="#777777"/>
<path fill-rule="evenodd" clip-rule="evenodd" d="M243.021 99.7352C242.96 95.4511 242.875 86.599 243.021 85.4248C243.167 84.2503 243.812 81.999 244.299 81.0202H243.386C243.63 80.4696 244.701 78.8546 247.037 76.7991C249.373 74.7436 251.296 74.2298 251.965 74.2298C251.722 74.2298 251.052 74.1563 250.322 73.8627C251.929 73.5691 255.25 73.1286 256.711 72.9451C256.528 72.8839 255.689 72.6881 253.79 72.3945C259.814 71.6604 264.742 71.8439 269.487 73.8627C274.233 75.8815 276.241 79.552 276.241 81.3873C278.979 82.672 279.526 85.9754 279.526 90.1965C279.526 92.1543 279.403 94.4535 279.3 96.3859C279.228 97.7498 279.165 98.931 279.161 99.6804C279.834 99.614 280.604 99.7917 280.986 100.658C281.709 102.292 280.465 110.756 278.317 110.043C277.95 112.307 277.397 114.131 276.606 115.523C274.854 118.606 273.564 120.111 273.138 120.478C272.955 121.518 272.7 124.259 273.138 126.902C273.685 130.205 274.781 131.673 278.614 132.408C282.447 133.142 295.223 137.546 299.421 139.382C308 143.132 308 157 308 157H214C214 157 214 143.132 222.579 139.382C226.777 137.546 239.553 133.142 243.386 132.408C247.219 131.673 248.315 130.205 248.862 126.902C249.3 124.259 249.045 121.518 248.862 120.478C248.436 120.111 247.146 118.606 245.394 115.523C244.595 114.117 244.039 112.272 243.673 109.979C243.647 109.993 243.62 110.006 243.593 110.017C241.402 110.935 240.125 102.309 240.855 100.658C241.304 99.6405 242.287 99.5729 243.021 99.7352ZM243.082 99.7399H243.042C243.055 99.7429 243.068 99.746 243.082 99.7491C243.082 99.7461 243.082 99.743 243.082 99.7399Z" fill="#E7E7E7"/>
<rect x="231" y="162" width="60" height="6" rx="3" fill="#777777"/>
<rect x="239" y="174" width="44" height="6" rx="3" fill="#777777"/>
</g>
<path d="M73 100C73 91.1634 80.1634 84 89 84H222C230.837 84 238 91.1634 238 100V100C238 108.837 230.837 116 222 116H89C80.1634 116 73 108.837 73 100V100Z" fill="white"/>
<path d="M104.191 95.576V97.22H101.959V104H99.9067V97.22H97.6747V95.576H104.191ZM104.813 100.64C104.813 99.952 104.941 99.348 105.197 98.828C105.461 98.308 105.817 97.908 106.265 97.628C106.713 97.348 107.213 97.208 107.765 97.208C108.237 97.208 108.649 97.304 109.001 97.496C109.361 97.688 109.637 97.94 109.829 98.252V97.304H111.881V104H109.829V103.052C109.629 103.364 109.349 103.616 108.989 103.808C108.637 104 108.225 104.096 107.753 104.096C107.209 104.096 106.713 103.956 106.265 103.676C105.817 103.388 105.461 102.984 105.197 102.464C104.941 101.936 104.813 101.328 104.813 100.64ZM109.829 100.652C109.829 100.14 109.685 99.736 109.397 99.44C109.117 99.144 108.773 98.996 108.365 98.996C107.957 98.996 107.609 99.144 107.321 99.44C107.041 99.728 106.901 100.128 106.901 100.64C106.901 101.152 107.041 101.56 107.321 101.864C107.609 102.16 107.957 102.308 108.365 102.308C108.773 102.308 109.117 102.16 109.397 101.864C109.685 101.568 109.829 101.164 109.829 100.652ZM117.457 104L115.417 101.192V104H113.365V95.12H115.417V100.028L117.445 97.304H119.977L117.193 100.664L120.001 104H117.457ZM127.095 100.544C127.095 100.736 127.083 100.936 127.059 101.144H122.415C122.447 101.56 122.579 101.88 122.811 102.104C123.051 102.32 123.343 102.428 123.687 102.428C124.199 102.428 124.555 102.212 124.755 101.78H126.939C126.827 102.22 126.623 102.616 126.327 102.968C126.039 103.32 125.675 103.596 125.235 103.796C124.795 103.996 124.303 104.096 123.759 104.096C123.103 104.096 122.519 103.956 122.007 103.676C121.495 103.396 121.095 102.996 120.807 102.476C120.519 101.956 120.375 101.348 120.375 100.652C120.375 99.956 120.515 99.348 120.795 98.828C121.083 98.308 121.483 97.908 121.995 97.628C122.507 97.348 123.095 97.208 123.759 97.208C124.407 97.208 124.983 97.344 125.487 97.616C125.991 97.888 126.383 98.276 126.663 98.78C126.951 99.284 127.095 99.872 127.095 100.544ZM124.995 100.004C124.995 99.652 124.875 99.372 124.635 99.164C124.395 98.956 124.095 98.852 123.735 98.852C123.391 98.852 123.099 98.952 122.859 99.152C122.627 99.352 122.483 99.636 122.427 100.004H124.995ZM132.773 95.576V104H130.721V95.576H132.773ZM137.416 95.576C138.304 95.576 139.08 95.752 139.744 96.104C140.408 96.456 140.92 96.952 141.28 97.592C141.648 98.224 141.832 98.956 141.832 99.788C141.832 100.612 141.648 101.344 141.28 101.984C140.92 102.624 140.404 103.12 139.732 103.472C139.068 103.824 138.296 104 137.416 104H134.26V95.576H137.416ZM137.284 102.224C138.06 102.224 138.664 102.012 139.096 101.588C139.528 101.164 139.744 100.564 139.744 99.788C139.744 99.012 139.528 98.408 139.096 97.976C138.664 97.544 138.06 97.328 137.284 97.328H136.312V102.224H137.284ZM145.173 99.776C145.173 98.944 145.353 98.204 145.713 97.556C146.073 96.9 146.573 96.392 147.213 96.032C147.861 95.664 148.593 95.48 149.409 95.48C150.409 95.48 151.265 95.744 151.977 96.272C152.689 96.8 153.165 97.52 153.405 98.432H151.149C150.981 98.08 150.741 97.812 150.429 97.628C150.125 97.444 149.777 97.352 149.385 97.352C148.753 97.352 148.241 97.572 147.849 98.012C147.457 98.452 147.261 99.04 147.261 99.776C147.261 100.512 147.457 101.1 147.849 101.54C148.241 101.98 148.753 102.2 149.385 102.2C149.777 102.2 150.125 102.108 150.429 101.924C150.741 101.74 150.981 101.472 151.149 101.12H153.405C153.165 102.032 152.689 102.752 151.977 103.28C151.265 103.8 150.409 104.06 149.409 104.06C148.593 104.06 147.861 103.88 147.213 103.52C146.573 103.152 146.073 102.644 145.713 101.996C145.353 101.348 145.173 100.608 145.173 99.776ZM154.254 100.64C154.254 99.952 154.382 99.348 154.638 98.828C154.902 98.308 155.258 97.908 155.706 97.628C156.154 97.348 156.654 97.208 157.206 97.208C157.678 97.208 158.09 97.304 158.442 97.496C158.802 97.688 159.078 97.94 159.27 98.252V97.304H161.322V104H159.27V103.052C159.07 103.364 158.79 103.616 158.43 103.808C158.078 104 157.666 104.096 157.194 104.096C156.65 104.096 156.154 103.956 155.706 103.676C155.258 103.388 154.902 102.984 154.638 102.464C154.382 101.936 154.254 101.328 154.254 100.64ZM159.27 100.652C159.27 100.14 159.126 99.736 158.838 99.44C158.558 99.144 158.214 98.996 157.806 98.996C157.398 98.996 157.05 99.144 156.762 99.44C156.482 99.728 156.342 100.128 156.342 100.64C156.342 101.152 156.482 101.56 156.762 101.864C157.05 102.16 157.398 102.308 157.806 102.308C158.214 102.308 158.558 102.16 158.838 101.864C159.126 101.568 159.27 101.164 159.27 100.652ZM164.859 98.42C165.099 98.052 165.399 97.764 165.759 97.556C166.119 97.34 166.519 97.232 166.959 97.232V99.404H166.395C165.883 99.404 165.499 99.516 165.243 99.74C164.987 99.956 164.859 100.34 164.859 100.892V104H162.807V97.304H164.859V98.42ZM167.531 100.64C167.531 99.952 167.659 99.348 167.915 98.828C168.179 98.308 168.535 97.908 168.983 97.628C169.431 97.348 169.931 97.208 170.483 97.208C170.923 97.208 171.323 97.3 171.683 97.484C172.051 97.668 172.339 97.916 172.547 98.228V95.12H174.599V104H172.547V103.04C172.355 103.36 172.079 103.616 171.719 103.808C171.367 104 170.955 104.096 170.483 104.096C169.931 104.096 169.431 103.956 168.983 103.676C168.535 103.388 168.179 102.984 167.915 102.464C167.659 101.936 167.531 101.328 167.531 100.64ZM172.547 100.652C172.547 100.14 172.403 99.736 172.115 99.44C171.835 99.144 171.491 98.996 171.083 98.996C170.675 98.996 170.327 99.144 170.039 99.44C169.759 99.728 169.619 100.128 169.619 100.64C169.619 101.152 169.759 101.56 170.039 101.864C170.327 102.16 170.675 102.308 171.083 102.308C171.491 102.308 171.835 102.16 172.115 101.864C172.403 101.568 172.547 101.164 172.547 100.652ZM185.047 98.288C185.047 98.776 184.935 99.224 184.711 99.632C184.487 100.032 184.143 100.356 183.679 100.604C183.215 100.852 182.639 100.976 181.951 100.976H180.679V104H178.627V95.576H181.951C182.623 95.576 183.191 95.692 183.655 95.924C184.119 96.156 184.467 96.476 184.699 96.884C184.931 97.292 185.047 97.76 185.047 98.288ZM181.795 99.344C182.187 99.344 182.479 99.252 182.671 99.068C182.863 98.884 182.959 98.624 182.959 98.288C182.959 97.952 182.863 97.692 182.671 97.508C182.479 97.324 182.187 97.232 181.795 97.232H180.679V99.344H181.795ZM190.231 97.232C190.999 97.232 191.615 97.488 192.079 98C192.543 98.504 192.775 99.2 192.775 100.088V104H190.735V100.364C190.735 99.916 190.619 99.568 190.387 99.32C190.155 99.072 189.843 98.948 189.451 98.948C189.059 98.948 188.747 99.072 188.515 99.32C188.283 99.568 188.167 99.916 188.167 100.364V104H186.115V95.12H188.167V98.204C188.375 97.908 188.659 97.672 189.019 97.496C189.379 97.32 189.783 97.232 190.231 97.232ZM197.249 104.096C196.593 104.096 196.001 103.956 195.473 103.676C194.953 103.396 194.541 102.996 194.237 102.476C193.941 101.956 193.793 101.348 193.793 100.652C193.793 99.964 193.945 99.36 194.249 98.84C194.553 98.312 194.969 97.908 195.497 97.628C196.025 97.348 196.617 97.208 197.273 97.208C197.929 97.208 198.521 97.348 199.049 97.628C199.577 97.908 199.993 98.312 200.297 98.84C200.601 99.36 200.753 99.964 200.753 100.652C200.753 101.34 200.597 101.948 200.285 102.476C199.981 102.996 199.561 103.396 199.025 103.676C198.497 103.956 197.905 104.096 197.249 104.096ZM197.249 102.32C197.641 102.32 197.973 102.176 198.245 101.888C198.525 101.6 198.665 101.188 198.665 100.652C198.665 100.116 198.529 99.704 198.257 99.416C197.993 99.128 197.665 98.984 197.273 98.984C196.873 98.984 196.541 99.128 196.277 99.416C196.013 99.696 195.881 100.108 195.881 100.652C195.881 101.188 196.009 101.6 196.265 101.888C196.529 102.176 196.857 102.32 197.249 102.32ZM205.574 102.26V104H204.53C203.786 104 203.206 103.82 202.79 103.46C202.374 103.092 202.166 102.496 202.166 101.672V99.008H201.35V97.304H202.166V95.672H204.218V97.304H205.562V99.008H204.218V101.696C204.218 101.896 204.266 102.04 204.362 102.128C204.458 102.216 204.618 102.26 204.842 102.26H205.574ZM209.765 104.096C209.109 104.096 208.517 103.956 207.989 103.676C207.469 103.396 207.057 102.996 206.753 102.476C206.457 101.956 206.309 101.348 206.309 100.652C206.309 99.964 206.461 99.36 206.765 98.84C207.069 98.312 207.485 97.908 208.013 97.628C208.541 97.348 209.133 97.208 209.789 97.208C210.445 97.208 211.037 97.348 211.565 97.628C212.093 97.908 212.509 98.312 212.813 98.84C213.117 99.36 213.269 99.964 213.269 100.652C213.269 101.34 213.113 101.948 212.801 102.476C212.497 102.996 212.077 103.396 211.541 103.676C211.013 103.956 210.421 104.096 209.765 104.096ZM209.765 102.32C210.157 102.32 210.489 102.176 210.761 101.888C211.041 101.6 211.181 101.188 211.181 100.652C211.181 100.116 211.045 99.704 210.773 99.416C210.509 99.128 210.181 98.984 209.789 98.984C209.389 98.984 209.057 99.128 208.793 99.416C208.529 99.696 208.397 100.108 208.397 100.652C208.397 101.188 208.525 101.6 208.781 101.888C209.045 102.176 209.373 102.32 209.765 102.32Z" fill="black"/>
</svg>
