<svg width="24" height="24" viewBox="0 0 24 24" fill="none" xmlns="http://www.w3.org/2000/svg">
<path fill-rule="evenodd" clip-rule="evenodd" d="M19.8536 13.1464C20.0488 13.3417 20.0488 13.6583 19.8536 13.8536L14.8536 19.8536C14.6583 20.0488 14.3417 20.0488 14.1464 19.8536L11.1464 16.8536C10.9512 16.6583 10.9512 16.3417 11.1464 16.1464C11.3417 15.9512 11.6583 15.9512 11.8536 16.1464L14.5 18.7929L19.1464 13.1464C19.3417 12.9512 19.6583 12.9512 19.8536 13.1464Z" fill="black"/>
<path fill-rule="evenodd" clip-rule="evenodd" d="M11 11C12.6569 11 14 9.65685 14 8C14 6.34315 12.6569 5 11 5C9.34315 5 8 6.34315 8 8C8 9.65685 9.34315 11 11 11ZM11 12C13.2091 12 15 10.2091 15 8C15 5.79086 13.2091 4 11 4C8.79086 4 7 5.79086 7 8C7 10.2091 8.79086 12 11 12Z" fill="black"/>
<path d="M4.52175 20C4.79068 20 5 19.7689 5 19.5C5 16.6309 7.19694 14.2748 10.0004 14.0224C10.2754 13.9976 10.5 13.7761 10.5 13.5C10.5 13.2239 10.2754 12.998 10 13.0189C6.64378 13.2743 4 16.0784 4 19.5C4 19.5134 4.00004 19.5269 4.00012 19.5403C4.0017 19.7999 4.21952 20 4.47914 20H4.52175Z" fill="black"/>
</svg>
